<svg width="410" height="242" viewBox="0 0 410 242" fill="none" xmlns="http://www.w3.org/2000/svg">
<g filter="url(#filter0_d_7_20)">
<g filter="url(#filter1_d_7_20)">
<path d="M284 48H128C124.686 48 122 50.6863 122 54V138C122 141.314 124.686 144 128 144H284C287.314 144 290 141.314 290 138V54C290 50.6863 287.314 48 284 48Z" stroke="white" stroke-width="12" stroke-linecap="round" stroke-linejoin="round"/>
<path d="M242 48L290 90" stroke="white" stroke-width="12" stroke-linecap="round" stroke-linejoin="round"/>
<path d="M242 144L290 102" stroke="white" stroke-width="12" stroke-linecap="round" stroke-linejoin="round"/>
<path d="M170 48L122 90" stroke="white" stroke-width="12" stroke-linecap="round" stroke-linejoin="round"/>
<path d="M170 144L122 102" stroke="white" stroke-width="12" stroke-linecap="round" stroke-linejoin="round"/>
<path d="M218.576 85.464C218.235 85.08 217.531 84.5893 216.464 83.992C215.44 83.352 214.181 82.7547 212.688 82.2C211.237 81.6453 209.701 81.2827 208.08 81.112V92.184C208.293 92.2267 208.507 92.2907 208.72 92.376C208.976 92.4187 209.232 92.4827 209.488 92.568C212.475 93.336 215.056 94.232 217.232 95.256C219.408 96.28 221.093 97.6453 222.288 99.352C223.483 101.016 224.08 103.235 224.08 106.008C224.08 109.08 223.376 111.597 221.968 113.56C220.56 115.48 218.683 116.909 216.336 117.848C214.032 118.787 211.493 119.32 208.72 119.448V126.488H204.432V119.384C201.488 119.128 198.608 118.509 195.792 117.528C192.976 116.504 190.437 115.203 188.176 113.624L192.08 106.008C192.549 106.477 193.403 107.096 194.64 107.864C195.92 108.589 197.456 109.315 199.248 110.04C201.04 110.723 202.96 111.192 205.008 111.448V100.44C204.667 100.312 204.304 100.205 203.92 100.12C203.579 100.035 203.237 99.928 202.896 99.8C199.995 98.9893 197.584 98.0933 195.664 97.112C193.787 96.088 192.357 94.8293 191.376 93.336C190.437 91.8 189.968 89.8587 189.968 87.512C189.968 84.6533 190.608 82.2213 191.888 80.216C193.168 78.168 194.896 76.568 197.072 75.416C199.248 74.264 201.701 73.56 204.432 73.304V66.84H208.72V73.304C211.408 73.5173 213.925 74.1147 216.272 75.096C218.661 76.0347 220.731 77.1013 222.48 78.296L218.576 85.464ZM199.12 86.104C199.12 87.512 199.611 88.6 200.592 89.368C201.573 90.0933 203.045 90.7547 205.008 91.352V81.048C201.083 81.3893 199.12 83.0747 199.12 86.104ZM214.672 106.904C214.672 105.453 214.075 104.323 212.88 103.512C211.728 102.701 210.128 101.976 208.08 101.336V111.576C212.475 111.405 214.672 109.848 214.672 106.904Z" fill="white"/>
</g>
<path d="M34.808 193.464C34.424 193.037 33.6133 192.483 32.376 191.8C31.1387 191.075 29.6453 190.435 27.896 189.88C26.1893 189.283 24.4187 188.984 22.584 188.984C17.7627 188.984 15.352 190.691 15.352 194.104C15.352 195.341 15.736 196.323 16.504 197.048C17.272 197.773 18.424 198.392 19.96 198.904C21.496 199.416 23.416 199.971 25.72 200.568C28.7067 201.336 31.288 202.232 33.464 203.256C35.6827 204.28 37.368 205.645 38.52 207.352C39.7147 209.016 40.312 211.235 40.312 214.008C40.312 217.251 39.5227 219.875 37.944 221.88C36.408 223.843 34.36 225.272 31.8 226.168C29.24 227.064 26.4667 227.512 23.48 227.512C20.0667 227.512 16.6747 227 13.304 225.976C9.976 224.909 7.01067 223.459 4.408 221.624L8.312 214.008C8.696 214.392 9.37867 214.904 10.36 215.544C11.3413 216.141 12.536 216.76 13.944 217.4C15.352 217.997 16.888 218.509 18.552 218.936C20.216 219.363 21.9013 219.576 23.608 219.576C28.472 219.576 30.904 218.019 30.904 214.904C30.904 213.581 30.4133 212.515 29.432 211.704C28.4507 210.893 27.064 210.211 25.272 209.656C23.5227 209.101 21.4747 208.483 19.128 207.8C16.2267 206.989 13.816 206.093 11.896 205.112C10.0187 204.088 8.61067 202.829 7.672 201.336C6.73333 199.8 6.264 197.859 6.264 195.512C6.264 192.397 6.98933 189.795 8.44 187.704C9.93333 185.571 11.9387 183.971 14.456 182.904C16.9733 181.795 19.768 181.24 22.84 181.24C25.9973 181.24 28.9413 181.752 31.672 182.776C34.4027 183.8 36.7493 184.973 38.712 186.296L34.808 193.464ZM65.5 225.272C64.348 225.784 62.9187 226.296 61.212 226.808C59.548 227.32 57.82 227.576 56.028 227.576C54.4493 227.576 52.9987 227.299 51.676 226.744C50.3533 226.189 49.2867 225.315 48.476 224.12C47.708 222.883 47.324 221.283 47.324 219.32V200.056H42.908V193.464H47.324V182.584H55.9V193.464H62.94V200.056H55.9V216.44C55.9 217.592 56.1987 218.424 56.796 218.936C57.436 219.448 58.204 219.704 59.1 219.704C59.996 219.704 60.8707 219.555 61.724 219.256C62.5773 218.957 63.26 218.701 63.772 218.488L65.5 225.272ZM67.6625 217.08C67.6625 214.904 68.2598 213.005 69.4545 211.384C70.6918 209.72 72.3985 208.44 74.5745 207.544C76.7505 206.648 79.2465 206.2 82.0625 206.2C83.4705 206.2 84.8998 206.328 86.3505 206.584C87.8012 206.797 89.0598 207.117 90.1265 207.544V205.752C90.1265 203.619 89.4865 201.976 88.2065 200.824C86.9692 199.672 85.1132 199.096 82.6385 199.096C80.8038 199.096 79.0545 199.416 77.3905 200.056C75.7265 200.696 73.9772 201.635 72.1425 202.872L69.3905 197.24C71.6092 195.789 73.8705 194.701 76.1745 193.976C78.5212 193.251 80.9745 192.888 83.5345 192.888C88.3132 192.888 92.0252 194.083 94.6705 196.472C97.3585 198.861 98.7025 202.275 98.7025 206.712V217.4C98.7025 218.339 98.8518 219 99.1505 219.384C99.4492 219.725 99.9825 219.939 100.751 220.024V227C99.9825 227.171 99.2785 227.277 98.6385 227.32C98.0412 227.405 97.5292 227.448 97.1025 227.448C95.3958 227.448 94.0945 227.064 93.1985 226.296C92.3025 225.528 91.7692 224.589 91.5985 223.48L91.4065 221.752C89.9132 223.672 88.0785 225.144 85.9025 226.168C83.7692 227.149 81.5718 227.64 79.3105 227.64C77.0492 227.64 75.0438 227.192 73.2945 226.296C71.5452 225.357 70.1585 224.099 69.1345 222.52C68.1532 220.899 67.6625 219.085 67.6625 217.08ZM88.5265 218.808C89.5932 217.784 90.1265 216.803 90.1265 215.864V212.472C87.9078 211.576 85.6678 211.128 83.4065 211.128C81.1452 211.128 79.3105 211.619 77.9025 212.6C76.4945 213.539 75.7905 214.797 75.7905 216.376C75.7905 217.656 76.3025 218.808 77.3265 219.832C78.3505 220.856 79.8225 221.368 81.7425 221.368C83.0225 221.368 84.2598 221.133 85.4545 220.664C86.6918 220.195 87.7158 219.576 88.5265 218.808ZM125.789 227.64C123.229 227.64 120.946 227.064 118.941 225.912C116.935 224.76 115.357 223.181 114.205 221.176V227H106.717V180.28H115.293V199.352C116.487 197.347 118.045 195.768 119.965 194.616C121.927 193.464 124.21 192.888 126.813 192.888C129.714 192.888 132.253 193.699 134.429 195.32C136.647 196.899 138.375 199.011 139.613 201.656C140.85 204.301 141.469 207.203 141.469 210.36C141.469 213.603 140.786 216.525 139.421 219.128C138.055 221.731 136.178 223.8 133.789 225.336C131.442 226.872 128.775 227.64 125.789 227.64ZM123.421 220.344C125.255 220.344 126.855 219.896 128.221 219C129.629 218.104 130.717 216.909 131.485 215.416C132.295 213.88 132.701 212.216 132.701 210.424C132.701 208.589 132.317 206.904 131.549 205.368C130.823 203.789 129.799 202.531 128.477 201.592C127.154 200.653 125.639 200.184 123.933 200.184C122.055 200.184 120.327 200.824 118.749 202.104C117.213 203.341 116.061 204.877 115.293 206.712V214.712C115.847 216.376 116.935 217.741 118.557 218.808C120.178 219.832 121.799 220.344 123.421 220.344ZM147.279 188.792V180.28H155.855V188.792H147.279ZM147.279 227V193.464H155.855V227H147.279ZM163.528 180.28H172.104V216.248C172.104 217.827 172.36 218.872 172.872 219.384C173.384 219.896 174.088 220.152 174.984 220.152C175.666 220.152 176.37 220.067 177.096 219.896C177.821 219.725 178.461 219.512 179.016 219.256L180.168 225.784C179.016 226.339 177.672 226.765 176.135 227.064C174.6 227.363 173.213 227.512 171.976 227.512C169.288 227.512 167.197 226.808 165.704 225.4C164.253 223.949 163.528 221.901 163.528 219.256V180.28ZM183.904 188.792V180.28H192.48V188.792H183.904ZM183.904 227V193.464H192.48V227H183.904ZM220.313 225.272C219.161 225.784 217.731 226.296 216.025 226.808C214.361 227.32 212.633 227.576 210.841 227.576C209.262 227.576 207.811 227.299 206.489 226.744C205.166 226.189 204.099 225.315 203.289 224.12C202.521 222.883 202.137 221.283 202.137 219.32V200.056H197.721V193.464H202.137V182.584H210.713V193.464H217.753V200.056H210.713V216.44C210.713 217.592 211.011 218.424 211.609 218.936C212.249 219.448 213.017 219.704 213.913 219.704C214.809 219.704 215.683 219.555 216.537 219.256C217.39 218.957 218.073 218.701 218.585 218.488L220.313 225.272ZM239.894 227.64C236.267 227.64 233.131 226.851 230.486 225.272C227.883 223.693 225.856 221.603 224.406 219C222.955 216.355 222.23 213.496 222.23 210.424C222.23 207.267 222.934 204.365 224.342 201.72C225.792 199.032 227.84 196.899 230.486 195.32C233.131 193.699 236.288 192.888 239.958 192.888C243.627 192.888 246.763 193.699 249.366 195.32C251.968 196.899 253.952 199.011 255.318 201.656C256.726 204.259 257.43 207.075 257.43 210.104C257.43 211.213 257.366 212.173 257.238 212.984H231.318C231.531 215.587 232.491 217.635 234.198 219.128C235.947 220.621 237.952 221.368 240.214 221.368C241.92 221.368 243.52 220.963 245.014 220.152C246.55 219.299 247.595 218.189 248.15 216.824L255.51 218.872C254.272 221.432 252.288 223.544 249.558 225.208C246.827 226.829 243.606 227.64 239.894 227.64ZM231.126 207.544H248.662C248.406 205.027 247.446 203 245.782 201.464C244.16 199.885 242.176 199.096 239.83 199.096C237.526 199.096 235.542 199.885 233.878 201.464C232.256 203 231.339 205.027 231.126 207.544ZM242.646 189.56L237.142 187.896L240.598 180.28H248.598L242.646 189.56ZM278.861 227V181.56H295.373C300.322 181.56 304.461 182.584 307.789 184.632C311.117 186.637 313.613 189.368 315.277 192.824C316.941 196.237 317.773 200.035 317.773 204.216C317.773 208.824 316.856 212.835 315.021 216.248C313.186 219.661 310.584 222.307 307.213 224.184C303.842 226.061 299.896 227 295.373 227H278.861ZM308.877 204.216C308.877 201.272 308.344 198.691 307.277 196.472C306.21 194.211 304.674 192.461 302.669 191.224C300.664 189.944 298.232 189.304 295.373 189.304H287.693V219.256H295.373C298.274 219.256 300.728 218.616 302.733 217.336C304.738 216.013 306.253 214.221 307.277 211.96C308.344 209.656 308.877 207.075 308.877 204.216ZM335.276 181.56H344.236L360.94 227H351.852L347.628 215.672H331.756L327.595 227H318.508L335.276 181.56ZM346.028 209.464L339.756 190.712L333.228 209.464H346.028ZM383.566 227.32C380.238 227.32 377.208 226.68 374.478 225.4C371.79 224.12 369.464 222.392 367.502 220.216C365.582 217.997 364.088 215.523 363.022 212.792C361.955 210.019 361.422 207.181 361.422 204.28C361.422 201.251 361.976 198.371 363.086 195.64C364.195 192.867 365.752 190.413 367.758 188.28C369.763 186.104 372.11 184.397 374.798 183.16C377.528 181.88 380.515 181.24 383.758 181.24C387.043 181.24 390.03 181.901 392.718 183.224C395.448 184.547 397.774 186.317 399.694 188.536C401.656 190.755 403.15 193.251 404.174 196.024C405.24 198.755 405.774 201.549 405.774 204.408C405.774 207.395 405.219 210.275 404.11 213.048C403 215.779 401.443 218.232 399.438 220.408C397.475 222.541 395.128 224.227 392.398 225.464C389.71 226.701 386.766 227.32 383.566 227.32ZM370.382 204.28C370.382 206.925 370.894 209.4 371.918 211.704C372.984 214.008 374.499 215.885 376.462 217.336C378.467 218.787 380.856 219.512 383.63 219.512C386.488 219.512 388.899 218.765 390.862 217.272C392.824 215.779 394.318 213.859 395.342 211.512C396.366 209.165 396.878 206.755 396.878 204.28C396.878 201.635 396.344 199.16 395.278 196.856C394.211 194.552 392.675 192.696 390.67 191.288C388.707 189.837 386.36 189.112 383.63 189.112C380.771 189.112 378.36 189.859 376.398 191.352C374.435 192.845 372.942 194.765 371.918 197.112C370.894 199.416 370.382 201.805 370.382 204.28Z" fill="white"/>
</g>
<defs>
<filter id="filter0_d_7_20" x="0.407997" y="0" width="409.366" height="235.64" filterUnits="userSpaceOnUse" color-interpolation-filters="sRGB">
<feFlood flood-opacity="0" result="BackgroundImageFix"/>
<feColorMatrix in="SourceAlpha" type="matrix" values="0 0 0 0 0 0 0 0 0 0 0 0 0 0 0 0 0 0 127 0" result="hardAlpha"/>
<feOffset dy="4"/>
<feGaussianBlur stdDeviation="2"/>
<feComposite in2="hardAlpha" operator="out"/>
<feColorMatrix type="matrix" values="0 0 0 0 0 0 0 0 0 0 0 0 0 0 0 0 0 0 0.25 0"/>
<feBlend mode="normal" in2="BackgroundImageFix" result="effect1_dropShadow_7_20"/>
<feBlend mode="normal" in="SourceGraphic" in2="effect1_dropShadow_7_20" result="shape"/>
</filter>
<filter id="filter1_d_7_20" x="106" y="0" width="200" height="200" filterUnits="userSpaceOnUse" color-interpolation-filters="sRGB">
<feFlood flood-opacity="0" result="BackgroundImageFix"/>
<feColorMatrix in="SourceAlpha" type="matrix" values="0 0 0 0 0 0 0 0 0 0 0 0 0 0 0 0 0 0 127 0" result="hardAlpha"/>
<feOffset dy="4"/>
<feGaussianBlur stdDeviation="2"/>
<feComposite in2="hardAlpha" operator="out"/>
<feColorMatrix type="matrix" values="0 0 0 0 0 0 0 0 0 0 0 0 0 0 0 0 0 0 0.25 0"/>
<feBlend mode="normal" in2="BackgroundImageFix" result="effect1_dropShadow_7_20"/>
<feBlend mode="normal" in="SourceGraphic" in2="effect1_dropShadow_7_20" result="shape"/>
</filter>
</defs>
</svg>
